#!OML:ASF F:\VICON\USERDATA\INSTALL\rory3\rory3.ASF
:FULLY-SPECIFIED
:DEGREES
3415
root 1.16048 17.8118 3.09444 -902.707 -31.1936 175.884
lowerback 13.2862 1.77996 0.742986
upperback 0.998864 2.39698 0.390712
thorax -6.38248 1.11297 -0.446265
lowerneck -21.3095 -1.0794 -10.4596
upperneck 33.2715 -0.214486 3.70263
head 15.249 -1.39012 3.20189
rclavicle 4.1049e-014 -6.36111e-015
rhumerus -37.3482 -15.961 -70.8374
rradius 32.4588
rwrist 4.27767
rhand -18.9655 9.02456
rfingers 7.12502
rthumb 7.33842 -20.8282
lclavicle 4.1049e-014 -6.36111e-015
lhumerus -33.8216 12.2541 77.6022
lradius 24.5717
lwrist -11.8769
lhand -18.8514 23.6731
lfingers 7.12502
lthumb 7.44856 53.522
rfemur 3.27521 0.728416 10.4977
rtibia 25.1909
rfoot -16.9229 -7.07167
rtoes -11.7845
lfemur -2.41037 -14.1733 -6.43266
ltibia 18.7618
lfoot 5.93788 4.96896
ltoes -5.69006
3416
root 1.05894 17.7905 3.12028 -902.754 -31.1223 175.885
lowerback 13.1848 1.81158 0.779563
upperback 1.0091 2.44409 0.394567
thorax -6.31322 1.13602 -0.46788
lowerneck -21.2594 -1.119 -10.4155
upperneck 33.0795 -0.269815 3.68967
head 15.1528 -1.3942 3.17485
rclavicle 2.51463e-014 5.56597e-015
rhumerus -37.4292 -16.2303 -70.6128
rradius 32.2319
rwrist 4.59289
rhand -19.0749 9.22896
rfingers 7.12502
rthumb 7.23286 -20.6274
lclavicle 2.51463e-014 5.56597e-015
lhumerus -33.8987 12.4523 77.5932
lradius 24.5667
lwrist -12.1964
lhand -18.7422 24.0468
lfingers 7.12502
lthumb 7.55397 53.8919
rfemur 3.34696 1.0088 10.1797
rtibia 25.3712
rfoot -16.9399 -7.25177
rtoes -12.3808
lfemur -1.85183 -14.0529 -6.44466
ltibia 18.306
lfoot 5.39534 4.51503
ltoes -12.8477
3417
root 0.960823 17.7645 3.15414 -902.879 -31.0366 176.151
lowerback 13.1445 1.86313 1.02843
upperback 0.963054 2.55713 0.481741
thorax -6.33149 1.18622 -0.536408
lowerneck -21.3764 -1.18679 -10.6681
upperneck 33.1721 -0.349446 3.94087
head 15.231 -1.4276 3.31409
rclavicle 2.99916e-014 2.38542e-015
rhumerus -37.6175 -16.5201 -70.3098
rradius 32.1924
rwrist 4.92867
rhand -19.2296 9.03428
rfingers 7.12502
rthumb 7.08353 -20.8272
lclavicle 2.99916e-014 2.38542e-015
lhumerus -33.9987 12.475 77.6697
lradius 24.6036
lwrist -12.4339
lhand -18.6361 23.9007
lfingers 7.12502
lthumb 7.65639 53.7421
rfemur 3.30837 1.33109 10.1546
rtibia 25.5882
rfoot -16.8455 -7.60421
rtoes -13.6216
lfemur -1.3453 -13.7371 -6.20734
ltibia 17.7882
lfoot 4.6724 3.77061
ltoes -19.4217
3418
root 0.870344 17.7383 3.20734 -903.151 -30.7265 176.92
lowerback 13.2742 1.89679 1.66335
upperback 0.829186 2.71706 0.701271
thorax -6.52515 1.24714 -0.699088
lowerneck -21.5558 -1.1705 -10.7344
upperneck 33.3439 -0.294992 3.96973
head 15.3481 -1.41941 3.35355
rclavicle -5.80948e-014 1.35174e-014
rhumerus -37.7956 -16.6573 -70.0478
rradius 32.347
rwrist 5.10175
rhand -19.0463 8.5407
rfingers 7.12502
rthumb 7.26046 -21.3147
lclavicle -5.80948e-014 1.35174e-014
lhumerus -34.0793 12.598 77.7397
lradius 24.6226
lwrist -12.4747
lhand -18.5529 23.2075
lfingers 7.12502
lthumb 7.73668 53.046
rfemur 2.98524 1.98026 10.6947
rtibia 25.8014
rfoot -16.7229 -8.10538
rtoes -13.9854
lfemur -1.02148 -13.1352 -5.45443
ltibia 17.3177
lfoot 3.86163 3.02948
ltoes -22.4517
3419
root 0.733305 17.7169 3.21602 -902.746 -30.8599 176.036
lowerback 12.7389 1.8746 1.06102
upperback 0.941413 2.5787 0.504153
thorax -6.12751 1.2009 -0.521415
lowerneck -21.597 -1.07313 -10.5033
upperneck 33.2776 -0.160725 3.80234
head 15.312 -1.35089 3.26651
rclavicle 6.80341e-014 -1.90833e-014
rhumerus -37.694 -16.6156 -69.8713
rradius 32.0216
rwrist 5.09068
rhand -18.9166 8.59795
rfingers 7.12502
rthumb 7.38562 -21.2531
lclavicle 6.80341e-014 -1.90833e-014
lhumerus -34.1512 12.4814 77.9724
lradius 24.8064
lwrist -12.119
lhand -18.5451 23.2426
lfingers 7.12502
lthumb 7.74424 53.0808
rfemur 3.22964 1.57044 9.22656
rtibia 25.9902
rfoot -17.209 -7.63758
rtoes -13.2231
lfemur -0.379154 -12.8427 -6.62717
ltibia 16.9131
lfoot 2.85474 2.47921
ltoes -24.017
3420
root 0.614069 17.6998 3.24245 -902.662 -30.8059 175.83
lowerback 12.6109 1.92259 1.0706
upperback 0.879261 2.64191 0.40735
thorax -6.11595 1.23272 -0.636514
lowerneck -21.4674 -1.07832 -10.4034
upperneck 33.1609 -0.226821 3.83002
head 15.2322 -1.35448 3.24519
rclavicle 1.1445e-013 -2.38542e-014
rhumerus -37.7386 -16.7763 -69.6091
rradius 31.5705
rwrist 5.16312
rhand -18.831 8.67808
rfingers 7.12502
rthumb 7.46827 -21.1701
lclavicle 1.1445e-013 -2.38542e-014
lhumerus -34.3525 11.8758 78.2893
lradius 25.1138
lwrist -11.5486
lhand -18.3174 23.6779
lfingers 7.12502
lthumb 7.964 53.5079
rfemur 3.2959 1.75 8.60379
rtibia 26.1414
rfoot -17.3451 -7.57851
rtoes -12.3301
lfemur 0.116965 -12.1537 -7.04585
ltibia 16.5319
lfoot 1.90687 1.80838
ltoes -25.0527
